<svg xmlns="http://www.w3.org/2000/svg" viewBox="0 0 396.21 89.92" width="397" height="90"><defs><style>.cls-1{fill:url(#gradient)}.cls-2{fill:#f90060}.cls-3{fill:#fff}</style><linearGradient id="gradient" x1="136.86" y1="189.1" x2="259.34" y2="-23.02" gradientTransform="matrix(1 0 0 -1 0 128)" gradientUnits="userSpaceOnUse"><stop offset=".4" stop-color="#fff"/><stop offset="1" stop-color="#fff" stop-opacity=".1"/></linearGradient></defs><title>Sexemulator</title><path class="cls-1" d="M353.1 89.92h-310A45 45 0 0 1 43.1 0h310a45 45 0 0 1 0 89.92zM43.1 3.64a41.32 41.32 0 0 0 0 82.64h310a41.32 41.32 0 0 0 0-82.64z"/><path class="cls-2" d="M39.77 58.81a18.25 18.25 0 0 1-5.42-2.1l3-6.87a19.68 19.68 0 0 0 4.48 1.86 17.74 17.74 0 0 0 4.75.7 7.43 7.43 0 0 0 2.8-.38 1.23 1.23 0 0 0 .84-1.14c0-.59-.37-1-1.1-1.32a23.28 23.28 0 0 0-3.61-1 40.54 40.54 0 0 1-5.4-1.46 9.19 9.19 0 0 1-3.76-2.56 7 7 0 0 1-1.6-4.81A8.35 8.35 0 0 1 36.27 35a9.82 9.82 0 0 1 4.42-3.4 18.46 18.46 0 0 1 7.13-1.24 26.11 26.11 0 0 1 5.66.62 17.87 17.87 0 0 1 4.89 1.82l-2.83 6.84a17.34 17.34 0 0 0-7.8-2.08c-2.42 0-3.63.58-3.63 1.76q0 .84 1.08 1.26a22.72 22.72 0 0 0 3.55.89 36.83 36.83 0 0 1 5.36 1.35 9.37 9.37 0 0 1 3.81 2.54 6.8 6.8 0 0 1 1.62 4.8 8.14 8.14 0 0 1-1.43 4.77 9.87 9.87 0 0 1-4.41 3.4 18.1 18.1 0 0 1-7.14 1.26 29.35 29.35 0 0 1-6.78-.78zm69.46.19l-4.84-7.47L99.68 59H88.93L99 44.89 89.29 31h10.59l4.75 7 4.64-7h10.15l-9.71 13.51L120 59z"/><path class="cls-2" d="M71.94 48.16v3.68h13.99v7.11H62.67V30.97h22.74v7.11H71.94v3.28h20.22l2.45 3.48-2.37 3.32h-20.3z"/><path class="cls-3" d="M146 51.84V59h-23.31V31h22.74v7.12H132v3.27h11.83v6.8H132v3.68zM174.9 59l-.08-12.75-6.07 10.23h-4.16l-6.07-9.79V59h-8.6V31h7.76l9.11 14.91L175.66 31h7.75l.08 28zm16.65-2.89q-3.6-3.48-3.6-9.75V31h9.44v15.08a7.25 7.25 0 0 0 1.1 4.48 4.32 4.32 0 0 0 6.1.25l.25-.25a7.32 7.32 0 0 0 1.1-4.48V31h9.27v15.36q0 6.27-3.6 9.75t-10 3.48q-6.51 0-10.06-3.48zM219.73 31h9.43v20.64h12.63V59h-22.06zm45.92 23.07H255L253.1 59h-9.59l12.23-28h9.36l12.23 28h-9.75zm-2.55-6.79l-2.72-7-2.71 7zm18.6-8.99h-8.2V31h25.82v7.32h-8.22V59h-9.4zm26.12 19.42A14.58 14.58 0 0 1 301.89 38l.3-.53a14 14 0 0 1 5.63-5.22 18.45 18.45 0 0 1 16.23 0 14 14 0 0 1 5.63 5.22 14.92 14.92 0 0 1 0 15.06 14 14 0 0 1-5.58 5.22 18.45 18.45 0 0 1-16.23 0zm11.28-6.61a6.2 6.2 0 0 0 2.26-2.44 8.57 8.57 0 0 0 0-7.4 6.11 6.11 0 0 0-2.26-2.43 6.29 6.29 0 0 0-6.35 0 6.11 6.11 0 0 0-2.26 2.43 8.57 8.57 0 0 0 0 7.4 6.2 6.2 0 0 0 2.26 2.44 6.35 6.35 0 0 0 6.35 0zm27.9.82h-2.56v7H335V31h13.5a16.56 16.56 0 0 1 6.75 1.28 10.34 10.34 0 0 1 5 13.73q-.19.4-.4.78a9.69 9.69 0 0 1-3.85 3.56l5.85 8.65h-10.08zm3.75-12.81a4.14 4.14 0 0 0-2.87-.86h-3.44v6.55h3.44a4.14 4.14 0 0 0 2.87-.86 3.52 3.52 0 0 0 .02-4.83z"/></svg>